<?xml version="1.0" encoding="UTF-8" standalone="no"?>
<!DOCTYPE svg PUBLIC "-//W3C//DTD SVG 20010904//EN"
"http://www.w3.org/TR/2001/REC-SVG-20010904/DTD/svg10.dtd">
<!-- Created with Sodipodi ("http://www.sodipodi.com/") -->
<svg
   xmlns="http://www.w3.org/2000/svg"
   width="800"
   height="800"
   xmlns:sodipodi="http://sodipodi.sourceforge.net/DTD/sodipodi-0.dtd"
   xmlns:xlink="http://www.w3.org/1999/xlink"
   id="svg650"
   sodipodi:version="0.34"
   sodipodi:docname="/home/shmyrev/local/src/csboard/images/white-rook.svg"
   sodipodi:docbase="/home/shmyrev/local/src/csboard/images/">
  <defs
     id="defs653" />
  <sodipodi:namedview
     id="base" />
  <path
     d="M 227.8651 504.0556 L 119.8651 612.0556 L 119.8651 747.0556 L 677.8651 747.0556 L 677.8651 612.0556 L 569.8651 504.0556 L 569.8651 288.0556 L 677.8651 216.0556 L 677.8651 36.05557 L 515.8651 36.05557 L 515.8651 108.0556 L 479.8651 108.0556 L 479.8651 36.05557 L 317.8651 36.05557 L 317.8651 108.0556 L 281.8651 108.0556 L 281.8651 36.05557 L 119.8651 36.05557 L 119.8651 216.0556 L 227.8651 288.0556 L 227.8651 504.0556 z M 623.8651 90.05557 L 623.8651 180.0556 L 515.8651 252.0556 L 281.8651 252.0556 L 173.8651 180.0556 L 173.8651 90.05557 L 227.8651 90.05557 L 227.8651 162.0556 L 371.8651 162.0556 L 371.8651 90.05557 L 425.8651 90.05557 L 425.8651 162.0556 L 569.8651 162.0556 L 569.8651 90.05557 L 623.8651 90.05557 z M 515.8651 315.0556 L 515.8651 468.0556 L 281.8651 468.0556 L 281.8651 315.0556 L 515.8651 315.0556 z M 623.8651 657.0556 L 623.8651 693.0556 L 173.8651 693.0556 L 173.8651 657.0556 L 623.8651 657.0556 z M 515.8651 531.0556 L 596.8651 603.0556 L 200.8651 603.0556 L 281.8651 531.0556 L 515.8651 531.0556 z "
     id="path651" />
</svg>
