<?xml version="1.0" encoding="UTF-8" standalone="no"?>
<!DOCTYPE svg PUBLIC "-//W3C//DTD SVG 20010904//EN"
"http://www.w3.org/TR/2001/REC-SVG-20010904/DTD/svg10.dtd">
<!-- Created with Sodipodi ("http://www.sodipodi.com/") -->
<svg
   xmlns="http://www.w3.org/2000/svg"
   width="800"
   height="800"
   xmlns:sodipodi="http://sodipodi.sourceforge.net/DTD/sodipodi-0.dtd"
   xmlns:xlink="http://www.w3.org/1999/xlink"
   id="svg610"
   sodipodi:version="0.34"
   sodipodi:docname="/home/shmyrev/local/src/csboard/images/black-king.svg"
   sodipodi:docbase="/home/shmyrev/local/src/csboard/images/">
  <defs
     id="defs613" />
  <sodipodi:namedview
     id="base" />
  <path
     d="M 653.5794 730.6587 L 671.5794 613.6587 C 725.5794 577.6587 797.5794 514.6587 797.5794 397.6587 C 797.5794 325.6587 734.5794 280.6587 662.5794 280.6587 C 590.5794 280.6587 509.5794 334.6587 509.5794 334.6587 C 509.5794 334.6587 554.5794 190.6587 428.5794 154.6587 L 428.5794 118.6587 L 482.5794 118.6587 L 482.5794 64.65869 L 428.5794 64.65869 L 428.5794 10.65869 L 374.5794 10.65869 L 374.5794 64.65869 L 320.5794 64.65869 L 320.5794 118.6587 L 374.5794 118.6587 L 374.5794 154.6587 C 248.5794 190.6587 293.5794 334.6587 293.5794 334.6587 C 293.5794 334.6587 212.5794 280.6587 140.5794 280.6587 C 68.57938 280.6587 5.579384 325.6587 5.579384 397.6587 C 5.579384 514.6587 77.57938 577.6587 131.5794 613.6587 L 149.5794 730.6587 C 158.5794 757.6587 221.5794 793.6587 401.5794 793.6587 C 581.5794 793.6587 644.5794 757.6587 653.5794 730.6587 z M 374.5794 541.6587 C 329.5794 541.6587 212.5794 550.6587 167.5794 568.6587 C 113.5794 541.6587 59.57938 496.6587 59.57938 406.6587 C 59.57938 352.6587 86.57938 334.6587 149.5794 334.6587 C 212.5794 334.6587 356.5794 397.6587 374.5794 541.6587 z M 428.5794 541.6587 C 446.5794 397.6587 590.5794 334.6587 662.5794 334.6587 C 716.5794 334.6587 743.5794 352.6587 743.5794 406.6587 C 743.5794 496.6587 689.5794 541.6587 635.5794 568.6587 C 590.5794 550.6587 473.5794 541.6587 428.5794 541.6587 z M 617.5794 667.6587 L 608.5794 705.9087 C 437.5794 678.9087 365.5794 678.9087 194.5794 705.9087 L 185.5794 667.6587 C 365.5794 640.6587 437.5794 640.6587 617.5794 667.6587 z M 464.5794 514.6587 C 527.5794 514.6587 581.5794 523.6587 635.5794 541.6587 C 707.5794 487.6587 716.5794 442.6587 716.5794 406.6587 C 716.5794 379.6587 698.5794 361.6587 662.5794 361.6587 C 554.5794 361.6567 473.5794 451.6587 464.5794 514.6587 z M 338.5794 514.6587 C 329.5794 451.6587 239.5794 361.6567 140.5794 361.6587 C 104.5794 361.6587 86.57938 388.6587 86.57938 415.6587 C 86.57938 442.6587 95.57938 487.6587 167.5794 541.6587 C 221.5794 523.6587 275.5794 514.6587 338.5794 514.6587 z "
     id="path611" />
</svg>
