<?xml version="1.0" encoding="UTF-8" standalone="no"?>
<!DOCTYPE svg PUBLIC "-//W3C//DTD SVG 20010904//EN"
"http://www.w3.org/TR/2001/REC-SVG-20010904/DTD/svg10.dtd">
<!-- Created with Sodipodi ("http://www.sodipodi.com/") -->
<svg
   xmlns="http://www.w3.org/2000/svg"
   width="800"
   height="800"
   xmlns:sodipodi="http://sodipodi.sourceforge.net/DTD/sodipodi-0.dtd"
   xmlns:xlink="http://www.w3.org/1999/xlink"
   id="svg646"
   sodipodi:version="0.34"
   sodipodi:docname="/home/shmyrev/local/src/csboard/images/white-queen.svg"
   sodipodi:docbase="/home/shmyrev/local/src/csboard/images/">
  <defs
     id="defs649" />
  <sodipodi:namedview
     id="base" />
  <path
     d="M 764.6038 143.6535 C 764.8068 155.6615 755.9188 166.7255 742.6188 166.5635 C 727.4698 166.3775 719.8548 154.9245 719.7098 144.5775 C 719.5248 131.4605 729.6878 121.6695 742.2498 121.6695 C 754.9978 121.6695 764.4198 132.7535 764.6038 143.6535 L 764.6038 143.6535 z M 619.6628 626.0095 C 619.6628 599.0095 630.3128 557.6855 673.6628 536.0095 C 691.6628 527.0095 691.6628 509.0095 691.6628 500.0095 C 691.6628 471.5495 745.6628 203.0095 745.6628 203.0095 C 782.1648 198.7475 799.5058 170.4775 799.5058 144.3465 C 799.5058 112.9895 774.8078 85.90757 741.0678 85.90757 C 713.2728 85.90757 683.1028 109.1875 682.3908 143.6345 C 682.2048 152.6325 683.5788 169.0525 699.9698 186.1565 L 592.6628 392.0095 L 592.6628 158.0095 C 621.5738 151.9505 639.3918 127.4825 639.3918 99.68754 C 639.3918 69.51757 613.2608 42.19957 580.4768 42.19957 C 546.9818 42.19957 521.8188 70.47057 522.2758 102.0635 C 522.5128 118.4555 530.1148 136.0345 547.6638 149.0095 L 466.6638 383.0095 L 430.6638 131.0095 C 455.2828 117.0305 462.4088 97.07554 462.4088 80.20857 C 462.4088 41.01157 431.2888 20.58157 403.7318 20.81857 C 373.7998 21.07657 345.2938 46.95057 345.2938 77.12057 C 345.2938 107.0525 361.6848 122.7315 376.6638 131.0095 L 340.6638 383.0095 L 259.6638 149.0095 C 278.2998 134.1345 284.7138 119.6435 284.7138 98.97654 C 284.7138 77.83357 266.8988 42.19957 225.7998 42.19957 C 193.0168 42.19957 167.8348 70.94457 167.8348 99.92654 C 167.8348 134.8485 192.7788 153.3775 214.6638 158.0105 L 214.6638 392.0105 L 106.6638 185.0105 C 120.3218 170.9535 122.6978 154.0605 122.6978 145.0605 C 122.6978 114.4145 99.65477 85.80757 61.66377 86.01057 C 36.46477 86.14657 5.940776 109.0625 5.581776 145.0605 C 5.344776 168.8165 23.39877 200.8865 61.66377 203.0105 C 61.66377 203.0105 115.6638 473.0105 115.6638 500.0105 C 115.6638 509.0115 115.6638 527.0105 133.6638 536.0105 C 169.6638 554.0115 187.6638 599.0105 187.6638 626.0105 C 187.6638 662.0115 160.6638 698.0115 160.6638 707.0115 C 160.6638 752.0105 322.6638 779.0115 403.6638 778.9915 C 475.6638 778.9735 646.6638 752.0105 646.6638 707.0105 C 646.6638 698.0105 619.6638 671.0105 619.6638 626.0105 L 619.6628 626.0095 z M 87.60677 144.0495 C 87.80977 156.0565 78.92177 167.1205 65.62177 166.9585 C 50.47277 166.7735 42.85777 155.3195 42.71277 144.9735 C 42.52777 131.8565 52.69077 122.0645 65.25277 122.0645 C 78.00077 122.0645 87.42277 133.1495 87.60677 144.0495 z M 603.6108 99.65654 C 603.8138 111.6635 594.9258 122.7275 581.6258 122.5655 C 566.4768 122.3805 558.8618 110.9265 558.7168 100.5805 C 558.5318 87.46354 568.6948 77.67157 581.2568 77.67157 C 594.0048 77.67157 603.4268 88.75654 603.6108 99.65654 L 603.6108 99.65654 z M 426.6188 78.15757 C 426.8218 90.16554 417.9338 101.2295 404.6338 101.0675 C 389.4848 100.8815 381.8698 89.42854 381.7248 79.08157 C 381.5398 65.96457 391.7028 56.17357 404.2648 56.17357 C 417.0128 56.17357 426.4348 67.25757 426.6188 78.15757 z M 249.1278 100.6565 C 249.3308 112.6635 240.4428 123.7275 227.1428 123.5655 C 211.9938 123.3805 204.3788 111.9265 204.2338 101.5805 C 204.0488 88.46354 214.2118 78.67157 226.7738 78.67157 C 239.5218 78.67157 248.9438 89.75654 249.1278 100.6565 z M 578.6398 575.9345 C 569.6398 591.9345 563.6398 630.9345 573.6398 663.9345 C 467.9728 643.6005 338.6398 637.9345 231.6398 663.9345 C 238.6398 638.9345 240.6398 613.9345 227.6398 575.9345 C 320.6398 544.9345 515.6398 553.9345 578.6398 575.9345 L 578.6398 575.9345 z M 537.6398 707.9345 C 489.9728 725.9345 429.9728 726.2685 399.9728 726.2685 C 369.9728 726.2685 308.9728 723.9345 264.6398 708.9345 C 317.6398 697.9345 362.3068 695.6005 397.3068 695.6005 C 432.3068 695.6005 497.9728 700.2685 537.6398 707.9345 z M 210.3298 536.9405 C 210.3298 536.9405 205.6628 530.2735 200.9958 524.9405 C 210.3298 522.2735 232.9958 509.6065 244.3298 494.9405 C 291.6628 508.9405 316.3298 498.9405 350.9958 476.2735 C 384.3298 494.9405 417.6628 494.2735 458.9958 474.9405 C 486.3298 498.2735 515.6628 504.2735 559.6628 495.6065 C 576.3298 512.9405 586.9958 518.9405 604.3298 525.6065 L 596.3298 536.9405 C 454.3298 506.9405 358.9958 506.2735 210.3298 536.9405 L 210.3298 536.9405 z M 691.3058 290.5525 L 654.2508 486.8025 C 626.8038 493.2065 606.2188 481.7695 593.4098 465.3015 L 691.3058 290.5525 z M 553.2018 247.3105 L 550.9868 445.2475 C 523.0908 454.9895 508.0348 450.5615 487.6658 434.1775 L 553.2018 247.3105 z M 401.7658 233.1415 L 433.6478 429.3065 C 416.8218 441.2625 388.4818 443.4765 369.4408 428.7485 L 401.7658 233.1415 z M 252.9838 254.3955 L 318.9628 441.2625 C 304.3508 457.6465 279.5528 464.2875 255.6418 452.7755 L 252.9848 254.3955 L 252.9838 254.3955 z M 116.6398 294.9345 L 212.1398 463.4345 C 201.6398 481.4345 175.1398 492.4345 151.1398 485.4345 L 116.6398 294.9345 z "
     id="path647" />
</svg>
