<?xml version="1.0" encoding="UTF-8" standalone="no"?>
<!DOCTYPE svg PUBLIC "-//W3C//DTD SVG 20010904//EN"
"http://www.w3.org/TR/2001/REC-SVG-20010904/DTD/svg10.dtd">
<!-- Created with Sodipodi ("http://www.sodipodi.com/") -->
<svg
   xmlns="http://www.w3.org/2000/svg"
   width="800"
   height="800"
   xmlns:sodipodi="http://sodipodi.sourceforge.net/DTD/sodipodi-0.dtd"
   xmlns:xlink="http://www.w3.org/1999/xlink"
   id="svg602"
   sodipodi:version="0.34"
   sodipodi:docname="white-king.svg">
  <defs
     id="defs605" />
  <sodipodi:namedview
     id="base" />
  <path
     d="M 648.5 730.6587 L 666.5 613.6587 C 720.5 577.6587 792.5 514.6587 792.5 397.6587 C 792.5 325.6587 729.5 280.6587 657.5 280.6587 C 585.5 280.6587 504.5 334.6587 504.5 334.6587 C 504.5 334.6587 549.5 190.6587 423.5 154.6587 L 423.5 118.6587 L 477.5 118.6587 L 477.5 64.65869 L 423.5 64.65869 L 423.5 10.65869 L 369.5 10.65869 L 369.5 64.65869 L 315.5 64.65869 L 315.5 118.6587 L 369.5 118.6587 L 369.5 154.6587 C 243.5 190.6587 288.5 334.6587 288.5 334.6587 C 288.5 334.6587 207.5 280.6587 135.5 280.6587 C 63.5 280.6587 0.5 325.6587 0.5 397.6587 C 0.5 514.6587 72.5 577.6587 126.5 613.6587 L 144.5 730.6587 C 153.5 757.6587 216.5 793.6587 396.5 793.6587 C 576.5 793.6587 639.5 757.6587 648.5 730.6587 z M 396.5 451.6587 C 396.5 451.6587 333.5 343.6587 333.5 280.6587 C 333.5 217.6587 369.5 208.6587 396.5 208.6587 C 423.5 208.6587 459.5 226.6587 459.5 280.6587 C 459.5 334.6587 396.5 451.6587 396.5 451.6587 z M 369.5 541.6587 C 324.5 541.6587 207.5 550.6587 162.5 568.6587 C 108.5 541.6587 54.5 496.6587 54.5 406.6587 C 54.5 352.6587 81.5 334.6587 144.5 334.6587 C 207.5 334.6587 351.5 397.6587 369.5 541.6587 z M 423.5 541.6587 C 441.5 397.6587 585.5 334.6587 657.5 334.6587 C 711.5 334.6587 738.5 352.6587 738.5 406.6587 C 738.5 496.6587 684.5 541.6587 630.5 568.6587 C 585.5 550.6587 468.5 541.6587 423.5 541.6587 z M 612.5 613.6587 L 603.5 685.6587 C 432.5 658.6587 360.5 658.6587 189.5 685.6587 L 180.5 613.6587 C 360.5 586.6587 432.5 586.6587 612.5 613.6587 z M 549.5 730.6587 C 468.5 748.6587 441.5 748.6587 396.5 748.6587 C 351.5 748.6587 324.5 748.6587 243.5 730.6587 C 324.5 712.6587 342.5 712.6587 396.5 712.6587 C 450.5 712.6587 468.5 712.6587 549.5 730.6587 z "
     id="path603" />
</svg>
