<?xml version="1.0" encoding="UTF-8" standalone="no"?>
<!DOCTYPE svg PUBLIC "-//W3C//DTD SVG 20010904//EN"
"http://www.w3.org/TR/2001/REC-SVG-20010904/DTD/svg10.dtd">
<!-- Created with Sodipodi ("http://www.sodipodi.com/") -->
<svg
   xmlns="http://www.w3.org/2000/svg"
   width="800"
   height="800"
   xmlns:sodipodi="http://sodipodi.sourceforge.net/DTD/sodipodi-0.dtd"
   xmlns:xlink="http://www.w3.org/1999/xlink"
   id="svg638"
   sodipodi:version="0.34"
   sodipodi:docname="/home/shmyrev/local/src/csboard/images/white-knight.svg"
   sodipodi:docbase="/home/shmyrev/local/src/csboard/images/">
  <defs
     id="defs641" />
  <sodipodi:namedview
     id="base" />
  <path
     d="M 76.68877 727.9459 L 556.6668 726.9459 C 556.3538 598.0499 470.3538 554.0499 477.3838 475.2099 L 579.4388 550.0499 C 620.2598 599.0359 666.5258 603.1179 681.4938 574.5439 C 715.5128 581.3469 746.8078 554.1339 745.4478 499.7039 C 744.0878 445.2739 682.8528 364.9909 659.7208 264.2969 C 633.8668 158.1599 604.2908 144.5529 587.9628 139.1089 L 587.6018 61.54587 L 505.9578 121.4189 L 459.6928 41.13587 L 413.4278 136.3879 C 252.8628 88.76187 82.13177 425.8639 76.68877 727.9459 z M 505.9578 677.9599 L 126.3138 677.9599 C 205.6858 187.7169 362.6858 154.7169 437.9218 193.5389 L 462.4148 144.5529 L 481.4648 178.5709 L 567.1908 198.9809 L 576.7158 189.4579 C 597.1268 205.7859 608.1498 284.0359 634.3528 350.7179 C 662.2928 421.8219 697.9098 477.3199 697.8208 496.9819 C 697.6858 526.7179 689.0188 532.7179 671.9668 525.5579 C 663.6858 512.0499 655.0188 500.7179 639.3098 499.7039 C 632.3528 500.0499 621.1438 503.0089 631.6858 509.7179 C 646.3528 519.0499 642.7518 540.1649 642.7518 540.1649 C 616.0188 518.7179 515.2528 437.0189 459.6928 401.7309 C 442.3518 390.7169 426.6848 380.7169 414.6848 350.2169 C 390.8218 377.3709 416.3518 430.7169 431.6848 444.0489 C 408.3518 536.0489 484.3518 618.7169 505.9568 677.9589 L 505.9578 677.9599 z M 682.0478 490.0099 C 682.0478 485.1859 675.9838 472.9179 669.9188 467.9569 C 663.8548 462.9939 654.4818 460.2359 648.9688 460.3749 C 643.4558 460.5139 634.4968 465.7499 634.9098 472.3669 C 635.3228 478.9819 647.1768 480.7749 651.8628 482.5659 C 656.5488 484.3569 662.8888 496.6259 669.5048 500.7599 C 676.1208 504.8939 682.0478 496.6779 682.0478 490.0099 L 682.0478 490.0099 z M 588.4568 320.9729 C 588.1138 280.4869 578.1638 263.6739 566.4978 249.2639 C 554.8318 234.8519 512.9728 215.2949 512.9728 215.2949 C 512.9728 215.2949 508.1688 266.4179 525.6678 296.2699 C 543.1668 326.1199 570.6148 321.3169 588.4568 320.9729 L 588.4568 320.9729 z "
     id="path639" />
</svg>
