<?xml version="1.0" encoding="UTF-8" standalone="no"?>
<!DOCTYPE svg PUBLIC "-//W3C//DTD SVG 20010904//EN"
"http://www.w3.org/TR/2001/REC-SVG-20010904/DTD/svg10.dtd">
<!-- Created with Sodipodi ("http://www.sodipodi.com/") -->
<svg
   xmlns="http://www.w3.org/2000/svg"
   width="800"
   height="800"
   xmlns:sodipodi="http://sodipodi.sourceforge.net/DTD/sodipodi-0.dtd"
   xmlns:xlink="http://www.w3.org/1999/xlink"
   id="svg626"
   sodipodi:version="0.34"
   sodipodi:docname="/home/shmyrev/local/src/csboard/images/black-rook.svg"
   sodipodi:docbase="/home/shmyrev/local/src/csboard/images/">
  <defs
     id="defs629" />
  <sodipodi:namedview
     id="base" />
  <path
     d="M 232.9444 519.2936 L 124.9444 627.2936 L 124.9444 762.2936 L 682.9444 762.2936 L 682.9444 627.2936 L 574.9444 519.2936 L 574.9444 303.2936 L 682.9444 231.2936 L 682.9444 51.29358 L 520.9444 51.29358 L 520.9444 123.2936 L 484.9444 123.2936 L 484.9444 51.29358 L 322.9444 51.29358 L 322.9444 123.2936 L 286.9444 123.2936 L 286.9444 51.29358 L 124.9444 51.29358 L 124.9444 231.2936 L 232.9444 303.2936 L 232.9444 519.2936 z M 268.9444 321.2936 L 268.9444 285.2936 L 538.9444 285.2936 L 538.9444 321.2936 L 268.9444 321.2936 z M 268.9444 537.2936 L 268.9444 501.2936 L 538.9444 501.2936 L 538.9444 537.2936 L 268.9444 537.2936 z "
     id="path627" />
</svg>
