<?xml version="1.0" encoding="UTF-8" standalone="no"?>
<!DOCTYPE svg PUBLIC "-//W3C//DTD SVG 20010904//EN"
"http://www.w3.org/TR/2001/REC-SVG-20010904/DTD/svg10.dtd">
<!-- Created with Sodipodi ("http://www.sodipodi.com/") -->
<svg
   xmlns="http://www.w3.org/2000/svg"
   width="800"
   height="800"
   xmlns:sodipodi="http://sodipodi.sourceforge.net/DTD/sodipodi-0.dtd"
   xmlns:xlink="http://www.w3.org/1999/xlink"
   id="svg622"
   sodipodi:version="0.34"
   sodipodi:docname="/home/shmyrev/local/src/csboard/images/black-queen.svg"
   sodipodi:docbase="/home/shmyrev/local/src/csboard/images/">
  <defs
     id="defs625" />
  <sodipodi:namedview
     id="base" />
  <path
     d="M 617.1231 626.0095 C 617.1231 599.0095 627.7731 557.6855 671.1231 536.0095 C 689.1231 527.0095 689.1231 509.0095 689.1231 500.0095 C 689.1231 471.5495 743.1231 203.0095 743.1231 203.0095 C 779.6251 198.7475 796.9661 170.4775 796.9661 144.3465 C 796.9661 112.9894 772.2681 85.90743 738.5281 85.90743 C 710.7331 85.90743 680.5631 109.1874 679.8511 143.6345 C 679.6651 152.6325 681.0391 169.0525 697.4301 186.1565 L 590.1231 392.0095 L 590.1231 158.0095 C 619.0341 151.9505 636.8521 127.4825 636.8521 99.68743 C 636.8521 69.51743 610.7211 42.19943 577.9371 42.19943 C 544.4421 42.19943 519.2791 70.47043 519.7361 102.0634 C 519.9731 118.4554 527.5751 136.0345 545.1241 149.0095 L 464.1241 383.0095 L 428.1241 131.0095 C 452.7431 117.0304 459.8681 97.07543 459.8681 80.20843 C 459.8681 41.01143 428.7491 20.58143 401.1921 20.81843 C 371.2601 21.07643 342.7531 46.95043 342.7531 77.12043 C 342.7531 107.0524 359.1441 122.7315 374.1241 131.0095 L 338.1241 383.0095 L 257.1241 149.0095 C 275.7591 134.1345 282.1731 119.6434 282.1731 98.97643 C 282.1731 77.83343 264.3591 42.19943 223.2591 42.19943 C 190.4761 42.19943 165.2941 70.94443 165.2941 99.92643 C 165.2941 134.8485 190.2391 153.3775 212.1241 158.0105 L 212.1241 392.0105 L 104.1241 185.0105 C 117.7821 170.9535 120.1571 154.0605 120.1571 145.0605 C 120.1571 114.4144 97.11406 85.80743 59.12406 86.01043 C 33.92506 86.14643 3.401065 109.0624 3.042065 145.0605 C 2.804065 168.8165 20.85806 200.8865 59.12406 203.0105 C 59.12406 203.0105 113.1241 473.0105 113.1241 500.0105 C 113.1241 509.0115 113.1241 527.0105 131.1241 536.0105 C 167.1241 554.0115 185.1241 599.0105 185.1241 626.0105 C 185.1241 662.0115 158.1241 698.0115 158.1241 707.0115 C 158.1241 752.0105 320.1241 779.0115 401.1241 778.9915 C 473.1241 778.9735 644.1241 752.0105 644.1241 707.0105 C 644.1241 698.0105 617.1241 671.0105 617.1241 626.0105 L 617.1231 626.0095 z M 594.5521 537.1295 C 583.2181 553.1295 581.2181 558.4625 576.5521 575.1295 C 487.2181 553.7965 327.2181 547.7965 225.8851 575.7965 C 221.2171 557.7965 219.2171 550.4625 208.5511 537.1295 C 325.2171 508.4625 479.2171 506.4625 594.5511 537.1295 L 594.5521 537.1295 z M 570.5521 663.7965 C 555.8851 674.4625 551.2181 682.4625 542.5521 693.7965 C 434.5521 677.1295 363.8841 674.4625 255.2181 693.1295 C 246.5521 679.7965 241.8861 673.1295 229.2181 663.7965 C 341.8861 634.4625 457.8861 644.4625 570.5521 663.7965 L 570.5521 663.7965 z "
     id="path623" />
</svg>
