<?xml version="1.0" encoding="UTF-8" standalone="no"?>
<!DOCTYPE svg PUBLIC "-//W3C//DTD SVG 20010904//EN"
"http://www.w3.org/TR/2001/REC-SVG-20010904/DTD/svg10.dtd">
<!-- Created with Sodipodi ("http://www.sodipodi.com/") -->
<svg
   xmlns="http://www.w3.org/2000/svg"
   width="800"
   height="800"
   xmlns:sodipodi="http://sodipodi.sourceforge.net/DTD/sodipodi-0.dtd"
   xmlns:xlink="http://www.w3.org/1999/xlink"
   id="svg630"
   sodipodi:version="0.34"
   sodipodi:docname="/home/shmyrev/local/src/csboard/images/white-bishop.svg"
   sodipodi:docbase="/home/shmyrev/local/src/csboard/images/">
  <defs
     id="defs633" />
  <sodipodi:namedview
     id="base" />
  <path
     d="M 404.2341 59.69333 C 422.2341 59.69333 431.2341 68.69333 431.2341 86.69333 C 431.2341 104.6933 422.2341 113.6933 404.2341 113.6933 C 386.2341 113.6933 377.2341 104.6933 377.2341 86.69333 C 377.2341 68.69333 386.2341 59.69333 404.2341 59.69333 z M 404.2341 167.6933 C 440.2341 221.6933 458.2341 221.6933 503.2341 257.6933 C 548.2341 293.6933 557.2341 338.6933 557.2341 374.6943 C 557.2341 410.6933 536.2341 432.2953 512.2341 446.6943 C 512.2341 446.6943 476.2341 428.6943 404.2341 428.6943 C 332.2341 428.6943 296.2341 446.6943 296.2341 446.6943 C 296.2341 446.6943 251.2341 410.6933 251.2341 374.6943 C 251.2341 338.6933 260.2341 293.6933 305.2341 257.6933 C 350.2341 221.6933 368.2341 221.6933 404.2341 167.6933 z M 503.2341 482.6943 L 512.2341 509.6943 C 467.2341 491.6943 341.2341 491.6943 296.2341 509.6943 L 305.2341 482.6943 C 341.2341 464.6943 467.2341 464.6943 503.2341 482.6943 z M 404.2341 536.6943 C 440.2341 536.6953 494.2341 545.6943 494.2341 545.6943 C 494.2341 545.6943 440.2341 554.6943 404.2341 554.6943 C 368.2341 554.6943 314.2341 545.6953 314.2341 545.6953 C 314.2341 545.6953 368.2341 536.6933 404.2341 536.6943 z M 440.2341 635.6943 C 494.2341 671.6943 503.5961 666.6033 539.2341 671.6943 C 602.2341 680.6943 628.1611 676.0153 656.2341 680.6943 C 710.2341 689.6943 737.2341 698.6943 737.2341 698.6943 L 719.2341 743.6943 C 719.2341 743.6943 710.6641 732.1843 665.2341 725.6943 C 602.2341 716.6943 548.2341 716.6943 503.2341 707.6943 C 458.2341 698.6943 422.2341 680.6943 404.2341 662.6943 C 386.8481 680.0803 350.2341 698.6943 305.2341 707.6943 C 260.2341 716.6943 207.4831 712.8443 143.2341 725.6943 C 98.23404 734.6943 89.23404 743.6943 89.23404 743.6943 L 71.23404 698.6943 C 71.23404 698.6943 98.23404 689.6943 152.2341 680.6943 C 176.7781 676.6033 206.2341 680.6943 269.2341 671.6943 C 305.9691 666.4463 314.2341 671.6943 368.2341 635.6943 L 440.2341 635.6943 z M 431.2341 266.6943 L 377.2341 266.6943 L 377.2341 302.6943 L 341.2341 302.6943 L 341.2341 356.6943 L 377.2341 356.6943 L 377.2341 392.6943 L 431.2341 392.6943 L 431.2341 356.6943 L 467.2341 356.6943 L 467.2341 302.6943 L 431.2341 302.6943 L 431.2341 266.6943 z M 800.2341 653.6943 C 800.2341 653.6943 755.2341 635.6943 692.2341 626.6943 C 655.4991 621.4463 602.2341 635.6943 557.2341 626.6943 C 521.2341 617.6943 485.2341 599.6943 485.2341 599.6943 L 575.2341 554.6943 L 548.2341 473.6943 C 548.2341 473.6943 611.2341 446.6943 611.2341 365.6943 C 611.2341 302.6943 566.2341 230.6943 503.2341 194.6943 C 457.6701 168.6583 449.2341 149.6943 449.2341 149.6943 C 449.2341 149.6943 485.2341 131.6943 485.2341 86.69433 C 485.2341 50.69433 458.2341 5.694326 404.2341 5.694326 C 350.2341 5.694326 323.2341 50.69433 323.2341 86.69433 C 323.2341 131.6943 359.2341 149.6943 359.2341 149.6943 C 359.2341 149.6943 350.7981 168.6583 305.2341 194.6943 C 242.2341 230.6943 197.2341 302.6943 197.2341 365.6943 C 197.2341 446.6943 260.2341 473.6943 260.2341 473.6943 L 233.2341 554.6943 L 323.2341 599.6943 C 323.2341 599.6943 287.2341 617.6943 251.2341 626.6943 C 206.7131 637.8243 149.5351 621.9373 116.2341 626.6943 C 53.23404 635.6943 8.234037 653.6943 8.234037 653.6943 L 53.23404 797.6943 C 116.2341 779.6943 125.2341 779.6943 179.2341 770.6943 C 212.3261 765.1793 294.0501 774.4223 332.2341 761.6943 C 386.2341 743.6943 404.2341 716.6943 404.2341 716.6943 C 404.2341 716.6943 422.2341 743.6943 476.2341 761.6943 C 514.4181 774.4223 600.9471 767.1583 629.2341 770.6943 C 683.5561 777.4843 755.2341 797.6943 755.2341 797.6943 L 800.2341 653.6943 L 800.2341 653.6943 z "
     id="path631" />
</svg>
