<?xml version="1.0" encoding="UTF-8" standalone="no"?>
<!DOCTYPE svg PUBLIC "-//W3C//DTD SVG 20010904//EN"
"http://www.w3.org/TR/2001/REC-SVG-20010904/DTD/svg10.dtd">
<!-- Created with Sodipodi ("http://www.sodipodi.com/") -->
<svg
   xmlns="http://www.w3.org/2000/svg"
   width="800"
   height="800"
   xmlns:sodipodi="http://sodipodi.sourceforge.net/DTD/sodipodi-0.dtd"
   xmlns:xlink="http://www.w3.org/1999/xlink"
   id="svg606"
   sodipodi:version="0.34"
   sodipodi:docname="/home/shmyrev/local/src/csboard/images/black-bishop.svg"
   sodipodi:docbase="/home/shmyrev/local/src/csboard/images/">
  <defs
     id="defs609" />
  <sodipodi:namedview
     id="base" />
  <path
     d="M 491.6944 453.4443 L 500.6944 482.6943 C 464.6944 455.6943 338.6944 455.6943 302.6944 482.6943 L 311.6944 453.4443 C 332.6944 432.4443 470.6944 432.4443 491.6944 453.4443 z M 509.6944 518.6943 L 518.6944 545.6943 C 470.6944 521.6943 332.6944 521.6943 284.6944 545.6943 L 293.6944 518.6943 C 338.6944 491.6943 464.6944 491.6943 509.6944 518.6943 z M 797.6944 653.6943 C 797.6944 653.6943 752.6944 635.6943 689.6944 626.6943 C 652.9594 621.4463 599.6944 635.6943 554.6944 626.6943 C 518.6944 617.6943 482.6944 599.6943 482.6944 599.6943 L 572.6944 554.6943 L 545.6944 473.6943 C 545.6944 473.6943 608.6944 446.6943 608.6944 365.6943 C 608.6944 302.6943 563.6944 230.6943 500.6944 194.6943 C 455.1304 168.6583 446.6944 149.6943 446.6944 149.6943 C 446.6944 149.6943 482.6944 131.6943 482.6944 86.69433 C 482.6944 50.69433 455.6944 5.694326 401.6944 5.694326 C 347.6944 5.694326 320.6944 50.69433 320.6944 86.69433 C 320.6944 131.6943 356.6944 149.6943 356.6944 149.6943 C 356.6944 149.6943 348.2584 168.6583 302.6944 194.6943 C 239.6944 230.6943 194.6944 302.6943 194.6944 365.6943 C 194.6944 446.6943 257.6944 473.6943 257.6944 473.6943 L 230.6944 554.6943 L 320.6944 599.6943 C 320.6944 599.6943 284.6944 617.6943 248.6944 626.6943 C 204.1734 637.8243 146.9954 621.9373 113.6944 626.6943 C 50.69436 635.6943 5.694364 653.6943 5.694364 653.6943 L 50.69436 797.6943 C 113.6944 779.6943 122.6944 779.6943 176.6944 770.6943 C 209.7864 765.1793 291.5104 774.4223 329.6944 761.6943 C 383.6944 743.6943 401.6944 716.6943 401.6944 716.6943 C 401.6944 716.6943 419.6944 743.6943 473.6944 761.6943 C 511.8784 774.4223 598.4074 767.1583 626.6944 770.6943 C 681.0164 777.4843 752.6944 797.6943 752.6944 797.6943 L 797.6944 653.6943 L 797.6944 653.6943 z M 428.6944 392.6943 L 374.6944 392.6943 L 374.6944 356.6943 L 338.6944 356.6943 L 338.6944 302.6943 L 374.6944 302.6943 L 374.6944 266.6943 L 428.6944 266.6943 L 428.6944 302.6943 L 464.6944 302.6943 L 464.6944 356.6943 L 428.6944 356.6943 L 428.6944 392.6943 z "
     id="path607" />
</svg>
