<?xml version="1.0" encoding="UTF-8" standalone="no"?>
<!DOCTYPE svg PUBLIC "-//W3C//DTD SVG 20010904//EN"
"http://www.w3.org/TR/2001/REC-SVG-20010904/DTD/svg10.dtd">
<!-- Created with Sodipodi ("http://www.sodipodi.com/") -->
<svg
   xmlns="http://www.w3.org/2000/svg"
   width="800"
   height="800"
   xmlns:sodipodi="http://sodipodi.sourceforge.net/DTD/sodipodi-0.dtd"
   xmlns:xlink="http://www.w3.org/1999/xlink"
   id="svg614"
   sodipodi:version="0.34"
   sodipodi:docname="/home/shmyrev/local/src/csboard/images/black-knight.svg"
   sodipodi:docbase="/home/shmyrev/local/src/csboard/images/">
  <defs
     id="defs617" />
  <sodipodi:namedview
     id="base" />
  <path
     d="M 84.31037 730.4846 L 564.2885 729.4846 C 563.9755 600.5886 477.9755 556.5886 485.0055 477.7486 L 587.0605 552.5886 C 611.1115 581.4496 637.0515 594.7256 657.3675 594.9166 C 671.5345 595.0496 633.3705 547.0806 627.3705 536.0806 C 653.3705 535.0806 689.3705 585.0806 718.3875 574.1156 C 739.5485 566.1216 754.0175 540.2206 753.0685 502.2426 C 751.7085 447.8126 690.4745 367.5296 667.3425 266.8366 C 641.4885 160.6996 611.9125 147.0926 595.5845 141.6485 L 595.2235 64.08556 L 513.5795 123.9585 L 467.3145 43.67557 L 421.0495 138.9275 C 260.4835 91.30056 89.75237 428.4026 84.30937 730.4846 L 84.31037 730.4846 z M 125.8784 697.9256 C 125.8784 436.6126 289.7685 168.9276 381.7285 167.1056 C 399.3715 167.4126 415.3715 173.4126 415.3275 179.8536 C 415.2405 192.6326 399.0275 197.1526 379.9075 197.1526 C 307.9785 199.8846 158.6564 453.0026 156.8354 695.1956 C 156.8354 713.4046 127.7004 712.4946 125.8794 697.9256 L 125.8784 697.9256 z M 678.7435 471.3416 C 684.0905 477.5796 689.6815 486.1656 689.8635 492.1916 C 690.0945 499.8366 684.0715 505.8616 678.2805 503.5436 C 672.4885 501.2276 665.5385 488.2526 660.9055 485.7056 C 656.2725 483.1566 642.1405 481.3036 642.3725 474.8166 C 642.6045 468.3296 652.1025 462.5376 657.6625 462.7696 C 663.2225 463.0016 675.9645 468.0976 678.7445 471.3416 L 678.7435 471.3416 z M 520.9875 218.0846 C 534.6235 223.8116 559.7145 235.2646 577.4415 255.9926 C 594.6235 278.9006 595.9865 304.8086 596.5315 323.3556 C 566.8045 326.9006 541.8745 318.2516 529.4415 290.9006 C 521.2595 272.9006 520.9865 239.6296 520.9865 218.0846 L 520.9875 218.0846 z "
     id="path615" />
</svg>
